<mxfile host="app.diagrams.net" modified="2023-07-01T14:35:22.189Z" agent="Mozilla/5.0 (Windows NT 10.0; Win64; x64; rv:109.0) Gecko/20100101 Firefox/114.0" etag="dNPaIuwvPq4oV-HW9Da5" version="21.3.7" type="github">
  <diagram name="Page-1" id="uHeKFPsjOhPoUkmpWBU9">
    <mxGraphModel dx="880" dy="465" grid="1" gridSize="10" guides="1" tooltips="1" connect="1" arrows="1" fold="1" page="1" pageScale="1" pageWidth="827" pageHeight="1169" math="0" shadow="0">
      <root>
        <mxCell id="0" />
        <mxCell id="1" parent="0" />
        <mxCell id="Xdg_5CbzPGbDs9awU8gL-5" style="edgeStyle=orthogonalEdgeStyle;rounded=0;orthogonalLoop=1;jettySize=auto;html=1;exitX=0.25;exitY=1;exitDx=0;exitDy=0;entryX=0.25;entryY=0;entryDx=0;entryDy=0;" edge="1" parent="1" source="Xdg_5CbzPGbDs9awU8gL-1" target="Xdg_5CbzPGbDs9awU8gL-2">
          <mxGeometry relative="1" as="geometry" />
        </mxCell>
        <mxCell id="Xdg_5CbzPGbDs9awU8gL-1" value="SISTEM PENGOLAHAN BARANG" style="rounded=0;whiteSpace=wrap;html=1;" vertex="1" parent="1">
          <mxGeometry x="350" y="70" width="120" height="60" as="geometry" />
        </mxCell>
        <mxCell id="Xdg_5CbzPGbDs9awU8gL-6" style="edgeStyle=orthogonalEdgeStyle;rounded=0;orthogonalLoop=1;jettySize=auto;html=1;exitX=0.25;exitY=1;exitDx=0;exitDy=0;entryX=0.25;entryY=0;entryDx=0;entryDy=0;" edge="1" parent="1" source="Xdg_5CbzPGbDs9awU8gL-2" target="Xdg_5CbzPGbDs9awU8gL-3">
          <mxGeometry relative="1" as="geometry" />
        </mxCell>
        <mxCell id="Xdg_5CbzPGbDs9awU8gL-10" style="edgeStyle=orthogonalEdgeStyle;rounded=0;orthogonalLoop=1;jettySize=auto;html=1;exitX=0.75;exitY=0;exitDx=0;exitDy=0;entryX=0.75;entryY=1;entryDx=0;entryDy=0;" edge="1" parent="1" source="Xdg_5CbzPGbDs9awU8gL-2" target="Xdg_5CbzPGbDs9awU8gL-1">
          <mxGeometry relative="1" as="geometry" />
        </mxCell>
        <mxCell id="Xdg_5CbzPGbDs9awU8gL-2" value="PROSES PENEMPATAN BARANG DARI KANTOR PUSAT" style="rounded=0;whiteSpace=wrap;html=1;" vertex="1" parent="1">
          <mxGeometry x="350" y="190" width="120" height="60" as="geometry" />
        </mxCell>
        <mxCell id="Xdg_5CbzPGbDs9awU8gL-7" style="edgeStyle=orthogonalEdgeStyle;rounded=0;orthogonalLoop=1;jettySize=auto;html=1;exitX=0.25;exitY=1;exitDx=0;exitDy=0;entryX=0.25;entryY=0;entryDx=0;entryDy=0;" edge="1" parent="1" source="Xdg_5CbzPGbDs9awU8gL-3" target="Xdg_5CbzPGbDs9awU8gL-4">
          <mxGeometry relative="1" as="geometry" />
        </mxCell>
        <mxCell id="Xdg_5CbzPGbDs9awU8gL-9" style="edgeStyle=orthogonalEdgeStyle;rounded=0;orthogonalLoop=1;jettySize=auto;html=1;exitX=0.75;exitY=0;exitDx=0;exitDy=0;entryX=0.75;entryY=1;entryDx=0;entryDy=0;" edge="1" parent="1" source="Xdg_5CbzPGbDs9awU8gL-3" target="Xdg_5CbzPGbDs9awU8gL-2">
          <mxGeometry relative="1" as="geometry" />
        </mxCell>
        <mxCell id="Xdg_5CbzPGbDs9awU8gL-3" value="SISTEM BARCODE/QR SCANNER" style="rounded=0;whiteSpace=wrap;html=1;" vertex="1" parent="1">
          <mxGeometry x="350" y="300" width="120" height="60" as="geometry" />
        </mxCell>
        <mxCell id="Xdg_5CbzPGbDs9awU8gL-8" style="edgeStyle=orthogonalEdgeStyle;rounded=0;orthogonalLoop=1;jettySize=auto;html=1;exitX=0.75;exitY=0;exitDx=0;exitDy=0;entryX=0.75;entryY=1;entryDx=0;entryDy=0;" edge="1" parent="1" source="Xdg_5CbzPGbDs9awU8gL-4" target="Xdg_5CbzPGbDs9awU8gL-3">
          <mxGeometry relative="1" as="geometry" />
        </mxCell>
        <mxCell id="Xdg_5CbzPGbDs9awU8gL-4" value="DATA BARANG" style="rounded=0;whiteSpace=wrap;html=1;" vertex="1" parent="1">
          <mxGeometry x="350" y="410" width="120" height="60" as="geometry" />
        </mxCell>
      </root>
    </mxGraphModel>
  </diagram>
</mxfile>
